<svg version="1.1" id="Layer_1" xmlns="http://www.w3.org/2000/svg" xmlns:xlink="http://www.w3.org/1999/xlink" x="0px" y="0px"
	 width="100%" viewBox="0 0 640 640" enable-background="new 0 0 640 640" xml:space="preserve">
<path fill="#000000" opacity="1.000000" stroke="none" 
	d="
M211.468658,641.000000 
	C211.089844,636.352234 210.710648,631.489136 209.978195,627.164062 
	C208.468033,618.246582 212.752213,608.714294 207.114517,600.384399 
	C203.107773,594.464355 199.226608,588.499878 193.984222,583.462952 
	C185.223221,575.045288 176.500763,566.515503 171.878845,554.840698 
	C170.818390,552.162109 168.549881,550.302246 166.697845,548.162842 
	C164.414261,545.524902 161.729279,543.026855 160.202011,539.975708 
	C150.941620,521.475647 136.107758,507.937714 120.747635,494.812592 
	C105.098579,481.440582 92.519173,465.588074 83.776001,446.970062 
	C79.568420,438.010315 79.113586,427.992065 77.822121,418.229187 
	C76.282906,406.593536 78.274536,395.366974 80.351898,384.093658 
	C81.037987,380.370331 80.839645,376.850616 79.654190,373.277313 
	C76.655861,364.239532 76.797371,354.976624 77.844711,345.656708 
	C78.149574,342.943939 79.168167,340.505157 80.433693,338.145874 
	C81.660385,335.858948 83.100838,333.666992 86.186447,334.455170 
	C89.113289,335.202850 91.246529,336.964966 91.798637,340.149628 
	C91.911873,340.802826 91.914383,341.476471 91.950546,342.141632 
	C92.583862,353.790131 96.913139,355.468109 108.357033,355.927704 
	C111.098587,356.037842 112.733238,354.726715 113.252953,351.991302 
	C113.964439,348.246490 115.112999,344.598206 114.263428,340.657135 
	C113.019936,334.888702 114.735451,329.271698 116.435806,323.962982 
	C120.445396,311.444519 119.473053,298.690796 119.389778,285.930725 
	C119.371452,283.123566 119.873779,280.308685 120.203621,277.505249 
	C120.397972,275.853485 121.246613,274.100830 120.910019,272.592316 
	C117.960938,259.375488 124.504753,247.557114 126.244675,235.046295 
	C127.204002,228.148285 125.798996,221.433319 124.557892,214.760651 
	C123.730431,210.311905 123.849594,206.232803 125.747795,202.111404 
	C127.855812,197.534439 129.049927,192.726746 129.118896,187.618378 
	C129.279327,175.736679 136.743164,168.239594 145.107910,161.261612 
	C156.082382,152.106583 167.282227,143.197495 175.364624,131.086853 
	C178.448456,126.466064 183.288193,123.530731 187.683548,120.246414 
	C193.254318,116.083801 193.238708,113.493340 187.504745,109.819527 
	C180.815826,105.533867 179.572113,103.561317 182.049606,96.279808 
	C185.094742,87.329987 183.437714,80.225716 176.558853,73.789230 
	C171.427628,68.987991 170.468811,63.699066 174.236801,56.831985 
	C179.351913,47.509766 186.433151,41.038288 195.503891,35.780842 
	C205.935486,29.734636 216.322861,23.994513 228.193237,21.205059 
	C231.804932,20.356339 234.011520,17.037247 235.054138,13.570150 
	C235.563156,11.877450 236.320648,11.369129 237.689682,11.263033 
	C239.276703,11.140044 240.058182,11.962070 240.254974,13.614149 
	C240.928329,19.266777 244.290115,21.445309 249.852676,22.442142 
	C262.103210,24.637493 274.116913,28.214010 286.395050,30.178036 
	C297.429718,31.943153 308.670624,32.186184 319.207184,26.990183 
	C321.369080,25.924072 323.755951,25.677294 326.055115,26.170675 
	C333.088806,27.680063 339.981384,27.144016 346.774750,25.015736 
	C350.179321,23.949121 353.293396,24.250147 356.341003,26.128937 
	C359.513641,28.084810 363.010956,28.792578 366.737366,29.256958 
	C375.597870,30.361149 380.669067,37.445686 386.170227,43.220585 
	C392.270996,49.624912 398.413055,55.880039 405.236969,61.519600 
	C416.483856,70.814499 427.079956,80.968826 438.817474,89.578819 
	C451.754242,99.068558 464.273895,109.121300 477.587738,118.167755 
	C485.506866,123.548653 493.228302,129.616867 501.535645,134.185623 
	C509.066437,138.327362 515.586182,143.272125 520.770813,149.633316 
	C527.969299,158.465347 537.002014,164.691925 546.251465,170.899506 
	C551.576599,174.473343 554.489563,180.438339 558.946777,184.919205 
	C560.468872,186.449387 561.687683,188.290558 563.259216,189.760727 
	C580.025024,205.444962 590.871704,224.831314 594.936890,247.070953 
	C598.093689,264.341278 602.769958,281.302826 604.590698,298.955505 
	C605.748962,310.185822 606.064880,321.770996 609.241394,332.949463 
	C611.066223,339.371155 610.604553,346.475098 610.933533,353.283478 
	C612.150513,378.467773 610.494995,403.504028 606.737793,428.412598 
	C605.891907,434.020630 604.475403,439.456177 602.238220,444.740784 
	C598.972839,452.454224 599.166382,461.074219 596.348511,468.969360 
	C594.371765,474.507812 591.923035,479.710419 588.434204,484.463867 
	C586.170532,487.548248 583.290588,490.115967 579.769165,490.910767 
	C571.786255,492.712646 564.350525,496.234161 556.358032,497.892334 
	C546.226440,499.994293 538.674988,496.334503 534.592346,486.785339 
	C530.266602,476.667511 527.013672,466.185455 524.623962,455.398376 
	C522.457458,445.618622 519.978760,435.748840 510.457062,430.000031 
	C508.335175,428.718903 506.025909,427.720795 503.735504,426.751801 
	C499.383881,424.910706 495.293243,422.801331 492.666412,418.597260 
	C490.763184,415.551270 487.929779,415.639618 484.531128,415.347443 
	C472.084747,414.277496 466.639526,422.739716 460.955505,431.219086 
	C460.492889,431.909210 460.090576,432.644379 459.577728,433.293396 
	C459.420837,433.491974 458.988068,433.472595 458.287689,433.656433 
	C457.987518,428.852783 459.874420,424.545776 460.750610,420.113678 
	C466.139771,392.854889 464.568817,365.741577 458.148804,338.977448 
	C441.438354,269.314026 403.322845,213.981812 344.774750,172.879745 
	C324.136749,158.391388 301.343231,148.231659 276.369324,143.735504 
	C259.040741,140.615799 241.681656,140.201736 224.474747,145.054062 
	C202.419357,151.273651 189.805450,166.205154 184.257721,187.910736 
	C182.505356,194.766846 182.268341,201.688095 182.275284,208.697922 
	C182.341354,275.520874 182.497101,342.344421 182.270096,409.166595 
	C182.202637,429.025299 189.245651,446.002472 202.896042,459.544037 
	C225.907440,482.371887 253.846970,497.291870 284.990784,506.125641 
	C289.425079,507.383423 293.987610,508.169586 298.750671,506.748505 
	C306.558319,504.419067 310.373291,499.884613 310.751648,491.638397 
	C310.827057,489.995300 310.941589,488.354034 311.036255,486.743408 
	C313.385590,485.782928 315.126007,487.050842 316.914215,487.700073 
	C333.432953,493.697418 350.463837,497.695831 367.981415,498.447174 
	C386.296539,499.232727 403.697632,495.195465 419.335632,485.045166 
	C420.974335,483.981598 422.474762,482.533386 425.330170,482.659363 
	C424.323578,487.734589 422.001740,492.193909 419.622284,496.355011 
	C414.315857,505.634674 416.190857,513.132507 423.021332,520.844543 
	C428.628357,527.175171 433.781952,533.915161 439.395325,540.293091 
	C445.114929,546.791626 444.744904,555.731445 446.229462,563.897339 
	C448.548676,576.654236 444.812012,589.068420 444.773254,601.683044 
	C444.750977,608.943787 446.286224,615.049866 451.881805,620.023010 
	C455.496979,623.236023 453.889771,627.322144 452.907196,631.211426 
	C452.124573,634.309326 449.510101,636.982483 450.848297,640.771851 
	C371.312439,641.000000 291.624878,641.000000 211.468658,641.000000 
z"/>
<path fill="#000000" opacity="1.000000" stroke="none" 
	d="
M282.855530,172.862152 
	C324.370758,185.311569 356.037933,211.132782 382.720795,243.644379 
	C406.125305,272.161499 423.335205,304.108032 432.650574,339.986450 
	C437.301544,357.899750 440.268280,376.165161 439.210876,394.706512 
	C438.040253,415.233795 433.610107,434.898102 419.986694,451.335297 
	C411.949554,461.032471 401.706299,467.115143 389.670288,470.497437 
	C386.552063,471.373688 385.211578,470.423889 385.145172,467.371887 
	C385.058258,463.375488 385.035767,459.377136 385.033356,455.379578 
	C385.013611,422.726196 384.250732,390.050079 385.233093,357.426636 
	C386.010223,331.619293 378.446716,308.885101 364.543793,287.849701 
	C349.715881,265.414673 330.579468,247.343597 307.509308,233.501663 
	C300.049896,229.026077 297.290161,230.608978 297.280426,239.362747 
	C297.234222,281.012360 297.267578,322.662048 297.226562,364.311676 
	C297.224487,366.393646 297.815216,368.626617 296.388000,370.594269 
	C294.239502,371.037384 292.931702,369.508942 291.531494,368.496704 
	C254.577209,341.781952 229.230103,306.585236 214.671860,263.450714 
	C208.431320,244.960663 208.199081,225.889557 208.631760,206.725037 
	C208.717804,202.912811 208.233612,199.076416 209.218231,195.292068 
	C213.244293,179.818039 225.529205,169.913651 241.533936,168.619324 
	C255.479355,167.491547 269.067810,168.924850 282.855530,172.862152 
z"/>
<path fill="#000000" opacity="1.000000" stroke="none" 
	d="
M245.668289,423.403717 
	C237.867004,419.209839 230.404129,415.165588 222.917145,411.166504 
	C219.791733,409.497131 216.327332,408.299408 212.895721,408.496002 
	C207.598404,408.799469 206.986755,406.181427 207.021194,401.836578 
	C207.162338,384.015869 207.035706,366.193054 207.011642,348.371033 
	C206.996811,337.378052 206.953629,326.384857 207.012604,315.392242 
	C207.022720,313.506775 206.368286,311.381226 208.510712,309.438934 
	C211.685608,314.825684 214.617249,320.172333 217.894043,325.298309 
	C237.774887,356.398560 262.687714,382.337585 295.597687,399.801575 
	C315.867676,410.558014 336.416168,412.083496 356.951965,400.214722 
	C357.660187,399.805389 358.471008,399.555634 359.258759,399.311401 
	C359.541016,399.223907 359.896515,399.372772 360.288422,399.422699 
	C361.615570,400.539490 361.223480,402.138428 361.224213,403.556610 
	C361.234802,424.709900 361.155914,445.863281 361.218231,467.016327 
	C361.230225,471.073822 360.271118,472.234711 355.684418,471.757660 
	C333.024139,469.400879 312.619385,461.156097 293.140167,449.771637 
	C277.622131,440.702301 261.725525,432.280731 245.668289,423.403717 
z"/>
<path fill="#000000" opacity="1.000000" stroke="none" 
	d="
M354.556671,322.570587 
	C358.963989,334.063416 361.979004,345.317749 359.373260,357.437103 
	C356.451996,371.023895 339.929230,383.335968 326.162079,381.954803 
	C323.479980,381.685730 321.853882,380.679504 321.855591,377.646545 
	C321.873932,345.000031 321.837738,312.353546 321.845612,279.707031 
	C321.845764,279.122894 322.204926,278.538818 322.767365,276.824554 
	C336.851959,290.161377 347.265381,305.012421 354.556671,322.570587 
z"/>
<path fill="#000000" opacity="1.000000" stroke="none" 
	d="
M86.777145,265.752197 
	C83.093384,267.751770 81.378990,265.354919 80.150177,263.020111 
	C78.531258,259.944092 77.058601,256.688660 76.192963,253.337296 
	C73.263641,241.996231 67.772850,231.650070 63.878479,220.692719 
	C60.240654,210.457214 63.921162,202.138947 70.833076,194.732986 
	C72.763176,192.664948 74.740814,190.611893 76.900490,188.794159 
	C80.392197,185.855225 84.646530,186.491821 86.425438,190.680435 
	C90.079155,199.283401 94.624794,207.401215 92.603416,217.821411 
	C91.408127,223.983139 92.263626,231.078033 94.649765,237.470535 
	C95.286049,239.175156 95.486694,241.038315 96.065468,242.769119 
	C99.453560,252.901077 93.787430,259.431793 86.777145,265.752197 
z"/>
<path fill="#000000" opacity="1.000000" stroke="none" 
	d="
M218.087692,440.879333 
	C216.399551,438.333984 214.038422,436.553162 213.513443,432.424164 
	C220.251007,436.372467 226.121735,439.954742 232.123138,443.302704 
	C249.111557,452.779968 266.155365,462.157959 283.170258,471.587830 
	C284.332062,472.231750 285.445496,472.965515 286.563324,473.685608 
	C288.342987,474.832153 288.911469,476.436676 288.178558,478.421417 
	C287.296722,480.809448 285.425110,480.335693 283.587006,479.933411 
	C274.228821,477.885498 265.715881,473.735046 257.318054,469.322510 
	C242.980621,461.789124 229.170258,453.512451 218.087692,440.879333 
z"/>
</svg>